<svg data-v-423bf9ae="" xmlns="http://www.w3.org/2000/svg" viewBox="0 0 486.86240336728906 163" class="iconAbove"><!----><!----><!----><g data-v-423bf9ae="" id="c990625a-c524-42f6-a7f4-9afdfe7e8c76" fill="#372C35" transform="matrix(5.610949896805602,0,0,5.610949896805602,-3.759090460906208,102.64494307680098)"><path d="M8.01 0.56L8.01 0.56C7.35 0.29 6.65 0.15 5.94 0.15C2.41 0.15 0.66 2.81 0.67 5.47C0.69 8.09 2.45 10.71 5.94 10.71C6.65 10.71 7.35 10.57 8.01 10.30C8.57 10.08 8.22 9.21 7.64 9.45C7.10 9.66 6.54 9.79 5.94 9.79C3.07 9.79 1.60 7.64 1.58 5.45C1.58 2.98 3.37 1.08 5.89 1.08C6.50 1.08 7.08 1.19 7.64 1.43C8.22 1.65 8.57 0.80 8.01 0.56ZM7.36 7.50L7.36 7.50C6.89 7.77 6.37 7.88 5.88 7.87C4.68 7.83 3.60 6.99 3.60 5.45C3.60 3.26 5.74 2.46 7.36 3.36C7.90 3.67 8.34 2.84 7.80 2.56C5.53 1.29 2.67 2.56 2.67 5.45C2.67 7.52 4.19 8.78 5.89 8.81C6.54 8.82 7.20 8.67 7.80 8.32C8.34 8.02 7.90 7.22 7.36 7.50ZM12.60 7.84L12.60 7.84L13.96 7.84C14.22 7.84 14.45 7.63 14.45 7.36C14.45 7.29 14.43 7.24 14.41 7.18L13.72 5.50C13.62 5.28 13.36 5.17 13.10 5.26C12.88 5.35 12.77 5.63 12.85 5.87L13.27 6.90L12.60 6.90C12.35 6.90 12.14 7.10 12.14 7.36C12.14 7.63 12.35 7.84 12.60 7.84ZM11.91 10.26L11.91 10.26L12.15 9.72L14.42 9.72L14.64 10.26C14.74 10.51 15.02 10.61 15.26 10.53C15.50 10.42 15.60 10.15 15.51 9.91L15.18 9.10C15.12 8.92 14.94 8.76 14.73 8.76L11.83 8.76L11.83 8.76C11.66 8.76 11.48 8.89 11.40 9.06L11.06 9.91C10.96 10.15 11.07 10.42 11.31 10.53C11.56 10.61 11.83 10.50 11.91 10.26ZM9.91 10.26L9.91 10.26L13.29 1.76L16.66 10.26C16.76 10.50 17.04 10.61 17.28 10.53C17.51 10.42 17.63 10.15 17.53 9.91L13.72 0.36C13.68 0.25 13.59 0.14 13.45 0.10C13.23 0 12.95 0.11 12.85 0.36L9.03 9.91C8.95 10.15 9.07 10.42 9.30 10.53C9.53 10.61 9.80 10.50 9.91 10.26ZM22.97 5.03L22.97 5.03C23.74 5.03 24.39 4.42 24.39 3.64C24.39 2.93 23.83 2.21 22.97 2.21L21.31 2.21C20.69 2.21 20.69 3.15 21.31 3.15L22.97 3.15C23.24 3.15 23.46 3.35 23.46 3.63C23.46 4.17 22.95 4.10 22.51 4.10C21.76 4.10 21.78 4.98 22.51 5.03C22.67 5.04 22.85 5.03 22.97 5.03ZM23.84 9.90L23.84 9.90L21.70 6.83C21.43 6.48 20.85 6.62 20.85 7.13L20.85 10.18C20.85 10.79 21.78 10.79 21.78 10.18L21.78 8.58L23.07 10.44C23.44 10.95 24.19 10.40 23.84 9.90ZM19.91 10.18L19.91 10.18L19.91 1.29L23.13 1.29C23.76 1.29 24.33 1.54 24.75 1.96C26.19 3.42 25.19 5.96 23.13 5.96C22.78 5.96 22.50 6.37 22.78 6.73L25.37 10.44C25.70 10.95 26.47 10.40 26.12 9.90L23.95 6.79C24.51 6.65 25.02 6.34 25.42 5.94C27.44 3.86 26.00 0.35 23.13 0.35L19.45 0.35C19.19 0.35 18.97 0.56 18.97 0.81L18.97 10.18C18.97 10.79 19.91 10.79 19.91 10.18ZM30.97 8.78L30.97 8.78C32.89 8.78 34.16 7.34 34.16 5.49C34.16 3.65 32.89 2.21 30.97 2.21L30.04 2.21C29.79 2.21 29.58 2.42 29.58 2.69L29.58 6.43C29.58 6.69 29.79 6.90 30.04 6.90C30.31 6.90 30.51 6.69 30.51 6.43L30.51 3.15L30.97 3.15C32.35 3.15 33.24 4.17 33.24 5.49C33.24 6.82 32.35 7.84 30.97 7.84L30.04 7.84C29.79 7.84 29.58 8.05 29.58 8.30C29.58 8.57 29.79 8.78 30.04 8.78ZM28.64 10.18L28.64 10.18L28.64 1.29L30.97 1.29C33.47 1.29 35.18 3.05 35.18 5.49C35.18 7.94 33.47 9.70 30.97 9.70L30.03 9.70C29.78 9.70 29.57 9.91 29.57 10.18C29.57 10.43 29.78 10.64 30.03 10.64L30.97 10.64C34.01 10.64 36.12 8.46 36.12 5.49C36.12 2.53 34.01 0.35 30.97 0.35L28.17 0.35C27.92 0.35 27.71 0.56 27.71 0.81L27.71 10.18C27.71 10.43 27.92 10.64 28.17 10.64C28.43 10.64 28.64 10.43 28.64 10.18ZM49.69 9.63L49.69 9.63L49.69 5.49C49.69 4.87 48.75 4.87 48.75 5.49L48.75 9.35C46.05 10.68 42.52 9.10 42.46 5.57C42.41 2.23 45.51 0.39 48.80 1.46L48.80 1.46C49.46 1.68 49.76 0.78 49.08 0.57C45.16-0.69 41.45 1.60 41.52 5.59C41.59 9.84 45.93 11.97 49.43 10.04C49.59 9.95 49.69 9.80 49.69 9.63ZM48.94 2.51L48.94 2.51C48.31 2.24 47.60 2.11 46.77 2.14C42.34 2.30 42.53 8.83 46.79 8.83C47.14 8.83 47.78 8.82 47.78 8.32L47.78 5.49C47.78 4.87 46.83 4.87 46.83 5.49L46.83 7.88C43.71 7.91 43.61 3.19 46.80 3.07C47.47 3.05 48.06 3.15 48.57 3.37C49.13 3.61 49.50 2.77 48.94 2.51ZM54.59 7.84L54.59 7.84L55.94 7.84C56.21 7.84 56.43 7.63 56.43 7.36C56.43 7.29 56.42 7.24 56.39 7.18L55.71 5.50C55.61 5.28 55.34 5.17 55.09 5.26C54.87 5.35 54.75 5.63 54.84 5.87L55.26 6.90L54.59 6.90C54.33 6.90 54.12 7.10 54.12 7.36C54.12 7.63 54.33 7.84 54.59 7.84ZM53.90 10.26L53.90 10.26L54.14 9.72L56.41 9.72L56.63 10.26C56.73 10.51 57.01 10.61 57.25 10.53C57.48 10.42 57.58 10.15 57.50 9.91L57.16 9.10C57.11 8.92 56.92 8.76 56.71 8.76L53.82 8.76L53.82 8.76C53.65 8.76 53.47 8.89 53.38 9.06L53.05 9.91C52.95 10.15 53.06 10.42 53.30 10.53C53.55 10.61 53.82 10.50 53.90 10.26ZM51.90 10.26L51.90 10.26L55.27 1.76L58.65 10.26C58.74 10.50 59.02 10.61 59.26 10.53C59.50 10.42 59.61 10.15 59.51 9.91L55.71 0.36C55.66 0.25 55.58 0.14 55.44 0.10C55.22 0 54.94 0.11 54.84 0.36L51.02 9.91C50.93 10.15 51.06 10.42 51.28 10.53C51.52 10.61 51.79 10.50 51.90 10.26ZM69.38 10.16L69.38 10.16L69.38 4.24C69.38 3.99 69.17 3.78 68.91 3.78C68.74 3.78 68.60 3.86 68.52 3.99L66.11 7.42L63.73 3.98C63.57 3.77 63.27 3.71 63.06 3.86C62.93 3.95 62.86 4.10 62.86 4.24L62.86 4.24L62.86 10.16C62.86 10.43 63.07 10.64 63.32 10.64C63.60 10.64 63.81 10.43 63.81 10.16L63.81 5.75L65.73 8.51C65.76 8.55 65.80 8.60 65.84 8.64C66.05 8.78 66.36 8.72 66.51 8.51L68.43 5.75L68.43 10.16C68.43 10.43 68.64 10.64 68.91 10.64C69.17 10.64 69.38 10.43 69.38 10.16ZM61.91 10.16L61.91 10.16L61.91 0.67C61.91 0.41 61.70 0.20 61.43 0.20C61.17 0.20 60.96 0.41 60.96 0.67L60.96 10.16C60.96 10.43 61.17 10.64 61.43 10.64C61.70 10.64 61.91 10.43 61.91 10.16ZM71.29 10.16L71.29 10.16L71.29 0.67C71.29 0.41 71.08 0.20 70.80 0.20C70.55 0.20 70.34 0.41 70.34 0.67L70.34 10.16C70.34 10.43 70.55 10.64 70.80 10.64C71.08 10.64 71.29 10.43 71.29 10.16ZM68.70 0.39L68.70 0.39L66.11 4.10L63.55 0.39C63.39 0.18 63.08 0.13 62.87 0.28C62.66 0.43 62.62 0.73 62.76 0.94L65.73 5.18C65.76 5.24 65.80 5.28 65.84 5.31C66.05 5.47 66.36 5.42 66.51 5.19L69.48 0.94C69.62 0.73 69.58 0.43 69.37 0.28C69.15 0.13 68.85 0.18 68.70 0.39ZM78.85 2.23L78.85 2.23L75.88 2.23C75.61 2.23 75.40 2.42 75.40 2.69L75.40 4.56C75.40 4.82 75.61 5.03 75.88 5.03L77.98 5.03C78.25 5.03 78.46 4.82 78.46 4.56C78.46 4.30 78.25 4.09 77.98 4.09L76.34 4.09L76.34 3.15L78.85 3.15C79.11 3.15 79.32 2.94 79.32 2.69C79.32 2.42 79.11 2.23 78.85 2.23ZM77.98 5.96L77.98 5.96L75.88 5.96C75.61 5.96 75.40 6.17 75.40 6.43L75.40 8.30C75.40 8.55 75.61 8.76 75.88 8.76L78.85 8.76C79.11 8.76 79.32 8.55 79.32 8.30C79.32 8.04 79.11 7.83 78.85 7.83L76.34 7.83L76.34 6.90L77.98 6.90C78.25 6.90 78.46 6.69 78.46 6.43C78.46 6.17 78.25 5.96 77.98 5.96ZM78.85 9.70L78.85 9.70L74.48 9.70L74.48 1.29L78.85 1.29C79.11 1.29 79.32 1.08 79.32 0.81C79.32 0.56 79.11 0.35 78.85 0.35L74.00 0.35C73.75 0.35 73.54 0.56 73.54 0.81L73.54 10.18C73.54 10.43 73.75 10.64 74.00 10.64L78.85 10.64C79.11 10.64 79.32 10.43 79.32 10.18C79.32 9.91 79.11 9.70 78.85 9.70ZM86.45 0.71L86.45 0.71C85.47 0.38 84.78 0.27 83.94 0.31C81.06 0.45 79.83 3.99 81.86 5.77C83.16 6.90 84.55 6.79 84.60 7.45C84.69 8.15 82.80 8.01 81.72 7.22C81.23 6.87 80.68 7.63 81.17 7.98C82.10 8.65 83.23 8.88 84.14 8.82C84.90 8.76 85.58 8.19 85.54 7.41C85.44 5.92 83.71 6.16 82.49 5.07C81.48 4.20 81.68 2.73 82.43 1.93C83.36 0.91 84.87 1.15 86.13 1.60C86.72 1.81 87.02 0.91 86.45 0.71ZM80.99 9.97L80.99 9.97C81.54 10.26 82.08 10.44 82.56 10.54C85.18 11.17 87.44 9.97 87.44 7.41C87.44 4.80 84.38 4.24 83.86 3.85C83.40 3.49 83.76 2.62 85.88 3.47C86.45 3.71 86.79 2.84 86.24 2.62C82.75 1.20 82.17 3.68 83.29 4.56C84.00 5.14 86.52 5.49 86.52 7.41C86.52 10.00 83.59 10.29 81.44 9.14C80.89 8.86 80.46 9.69 80.99 9.97ZM84.06 7.90L84.06 7.90L84.06 7.90L84.06 7.90Z"></path></g><defs data-v-423bf9ae=""><linearGradient data-v-423bf9ae="" gradientTransform="rotate(25)" id="963b8cff-0b52-4e18-874c-8bbb038159a8" x1="0%" y1="0%" x2="100%" y2="0%"><stop data-v-423bf9ae="" offset="0%" style="stop-color: rgb(150, 138, 191); stop-opacity: 1;"></stop><stop data-v-423bf9ae="" offset="100%" style="stop-color: rgb(228, 168, 170); stop-opacity: 1;"></stop></linearGradient></defs><g data-v-423bf9ae="" id="a637ac7b-1d5c-4b44-b8b4-a49160f54e58" transform="matrix(1.1578573561291212,0,0,1.1578573561291212,185.7766119947666,-12.769218607602816)" stroke="none" fill="url(#963b8cff-0b52-4e18-874c-8bbb038159a8)"><path d="M31.505 85.939a4.218 4.218 0 0 1-5.512-2.266L4.498 32.19a4.218 4.218 0 0 1 2.265-5.513L36.64 14.203a4.22 4.22 0 0 1 5.513 2.266l5.808 13.913 1.122-4.25-4.464-10.693a6.895 6.895 0 0 0-9.009-3.702L5.733 24.211a6.895 6.895 0 0 0-3.702 9.009l21.495 51.485c1.463 3.505 5.505 5.163 9.009 3.701l11.42-4.77a10.206 10.206 0 0 1-3.075-1.611l-9.375 3.914z"></path><path d="M40.652 56.375l.13-.458s-2.204.119-3.819-1.373c-.683-.633-1.294-1.578-1.777-2.594.991 1.163 2.811 1.562 4.271.95a3.44 3.44 0 1 0-2.651-6.348c-1.405.585-2.38 2.065-2.338 3.531a9.375 9.375 0 0 1-.308-1.379c1.352-.936 1.844-2.926 1.192-4.487a3.44 3.44 0 1 0-6.35 2.651c.655 1.568 2.43 2.621 4.054 2.301.262.345.522.757.767 1.21-1.01-1.076-2.761-1.431-4.174-.84a3.442 3.442 0 0 0 2.651 6.352c1.449-.607 2.441-2.164 2.328-3.676.359 1.024.591 2.104.583 3.061-.015 2.199-1.708 3.682-1.708 3.682l.003-.001.336.262c3.724-3.367 6.81-2.844 6.81-2.844M13.017 33.03a1.855 1.855 0 1 0-1.429-3.425c-.757.317-1.283 1.115-1.26 1.905a5.043 5.043 0 0 1-.167-.744c.729-.504.995-1.578.643-2.419a1.856 1.856 0 0 0-3.425 1.429c.353.845 1.311 1.413 2.185 1.241.142.187.283.409.414.653-.544-.581-1.488-.771-2.25-.453a1.855 1.855 0 0 0 1.429 3.424c.783-.327 1.318-1.166 1.256-1.981.194.552.319 1.134.315 1.649-.007 1.188-.921 1.985-.921 1.985h.002l.181.142c2.009-1.817 3.673-1.534 3.673-1.534l.069-.247s-1.188.063-2.059-.74c-.369-.341-.699-.852-.959-1.4.535.628 1.515.844 2.303.515M94.074 22.804L62.77 14.546c-2.953-.779-6.004.999-6.783 3.951L52.08 33.309l-1.12 4.25-9.204 34.884c-.777 2.951 1.001 6.005 3.952 6.783l1.151.304 4.251 1.122 25.902 6.832c2.95.779 6.002-.998 6.781-3.95l14.232-53.948c.78-2.952-1-6.003-3.951-6.782m-35.842-1.006c.088-.753.4-1.394 1.004-1.881.759-.611 1.596-1.094 2.477-1.497.51-.233 1.032-.428 1.551-.642.06-.024.1-.027.147.027.838.97 1.594 2 2.147 3.164.113.236.211.48.315.72.263.616.229 1.237.042 1.863a1.763 1.763 0 0 1-.35.661c-.592.675-1.375 1.101-2.471.729-.564-.193-.968-.584-1.224-1.12 0 .386.063.746.163 1.072.378 1.211 1.268 1.967 1.268 1.967l-.219.163s-1.229-1.32-4.113-1.085l-.062-.237-.002-.001s1.148-.218 2.072-1.086a3.53 3.53 0 0 0 .656-.826c-.183.096-.359.194-.546.261-1.453.526-3.032-.717-2.855-2.252m11.351 34.418c.707 2.276 2.379 3.695 2.379 3.695l-.414.309s-2.308-2.48-7.728-2.04l-.115-.445-.004-.002s2.156-.41 3.893-2.041c.458-.428.883-.94 1.235-1.553-.345.184-.679.364-1.029.492-2.739.985-5.702-1.352-5.368-4.234.164-1.416.752-2.619 1.885-3.534 1.427-1.149 2.996-2.058 4.65-2.813.956-.436 1.943-.805 2.914-1.205.109-.046.188-.053.279.052 1.578 1.823 2.992 3.757 4.037 5.944.211.444.396.901.592 1.353.496 1.156.436 2.324.079 3.501-.14.457-.337.885-.65 1.242-1.114 1.266-2.589 2.066-4.646 1.367-1.062-.361-1.817-1.097-2.299-2.104a6.666 6.666 0 0 0 .31 2.016M81.548 80.23c-.089.754-.399 1.395-1.004 1.884a11.496 11.496 0 0 1-2.476 1.495c-.508.231-1.033.428-1.549.642-.061.024-.101.028-.149-.026-.841-.972-1.593-1.998-2.147-3.164-.111-.235-.213-.479-.315-.72-.265-.616-.23-1.237-.042-1.862.072-.244.179-.473.348-.662.596-.674 1.377-1.101 2.473-.729.562.192.967.583 1.223 1.119a3.553 3.553 0 0 0-.163-1.072c-.379-1.209-1.267-1.967-1.267-1.967l.219-.163s1.229 1.32 4.111 1.085l.062.236.002.002s-1.146.218-2.071 1.087a3.585 3.585 0 0 0-.659.825c.186-.098.361-.194.551-.262 1.451-.524 3.032.72 2.853 2.252"></path></g><!----></svg>